<svg width="202" height="202" viewBox="0 0 202 202" fill="none" xmlns="http://www.w3.org/2000/svg">
<path d="M88.2565 134.995L56.7363 103.468L65.6439 94.5605L88.2565 117.167L136.073 69.3444L144.993 78.2646L88.2565 134.995Z" fill="#E8355D"/>
<path d="M100.865 12.608C83.4095 12.608 66.346 17.7842 51.8323 27.4819C37.3186 37.1797 26.0065 50.9635 19.3266 67.0902C12.6466 83.217 10.8989 100.962 14.3043 118.083C17.7097 135.203 26.1153 150.928 38.4582 163.271C50.8011 175.614 66.5269 184.02 83.647 187.425C100.767 190.831 118.513 189.083 134.639 182.403C150.766 175.723 164.55 164.411 174.248 149.897C183.945 135.384 189.121 118.32 189.121 100.865C189.121 77.4575 179.823 55.0091 163.272 38.4578C146.72 21.9065 124.272 12.608 100.865 12.608ZM100.865 176.513C85.9031 176.513 71.2773 172.076 58.8369 163.764C46.3966 155.452 36.7006 143.637 30.9749 129.814C25.2493 115.991 23.7512 100.781 26.6701 86.1063C29.589 71.4319 36.7938 57.9527 47.3734 47.373C57.9531 36.7934 71.4323 29.5886 86.1067 26.6697C100.781 23.7508 115.991 25.2488 129.814 30.9745C143.637 36.7002 155.452 46.3962 163.764 58.8365C172.077 71.2769 176.513 85.9027 176.513 100.865C176.513 120.928 168.543 140.169 154.356 154.356C140.17 168.543 120.928 176.513 100.865 176.513Z" fill="#E8355D"/>
</svg>
